<?xml version="1.0" encoding="UTF-8"?><svg xmlns="http://www.w3.org/2000/svg" viewBox="0 0 370.79 234.57"><defs><style>.d{fill:#ed1c24;}</style></defs><g id="a"/><g id="b"><g id="c"><g><rect class="d" x="258.8" y="72.75" width="85.12" height="65.87" rx="15.62" ry="15.62"/><g><g><path d="M0,105.86V27.91H9.88V97.08H53.36v8.78H0Z"/><path d="M90.58,106.96c-4.32,0-8.23-.78-11.75-2.34-3.51-1.56-6.55-3.71-9.11-6.43-2.56-2.72-4.54-5.87-5.93-9.43-1.39-3.56-2.09-7.3-2.09-11.22s.69-7.77,2.09-11.33c1.39-3.56,3.37-6.7,5.93-9.43,2.56-2.72,5.62-4.87,9.17-6.43,3.55-1.56,7.48-2.34,11.8-2.34s8.13,.78,11.64,2.34c3.51,1.56,6.57,3.71,9.17,6.43,2.6,2.72,4.59,5.87,5.98,9.43,1.39,3.56,2.09,7.34,2.09,11.33s-.7,7.66-2.09,11.22c-1.39,3.56-3.37,6.7-5.93,9.43-2.56,2.72-5.62,4.87-9.17,6.43-3.55,1.56-7.49,2.34-11.8,2.34Zm-18.99-29.32c0,3.91,.86,7.46,2.58,10.65,1.72,3.19,4.01,5.71,6.86,7.55,2.85,1.85,6.04,2.77,9.55,2.77s6.72-.94,9.61-2.83c2.89-1.88,5.2-4.44,6.92-7.66,1.72-3.22,2.58-6.79,2.58-10.71s-.86-7.46-2.58-10.65c-1.72-3.19-4.03-5.72-6.92-7.61-2.89-1.88-6.09-2.83-9.61-2.83s-6.7,.96-9.55,2.88-5.14,4.47-6.86,7.66c-1.72,3.19-2.58,6.77-2.58,10.76Z"/><path d="M154.7,106.96c-4.76,0-9.22-.79-13.39-2.36-4.17-1.57-7.76-3.93-10.76-7.08l3.73-6.81c3.29,3.07,6.59,5.27,9.88,6.59,3.29,1.32,6.66,1.98,10.1,1.98,3.95,0,7.17-.74,9.66-2.22,2.49-1.48,3.73-3.66,3.73-6.55,0-2.11-.64-3.67-1.92-4.69-1.28-1.02-3.09-1.87-5.43-2.56-2.34-.69-5.12-1.47-8.34-2.34-3.95-1.16-7.28-2.4-9.99-3.7-2.71-1.31-4.76-2.94-6.15-4.9-1.39-1.96-2.09-4.43-2.09-7.41,0-3.63,.95-6.7,2.85-9.21,1.9-2.51,4.52-4.41,7.85-5.72,3.33-1.31,7.12-1.96,11.36-1.96s8.09,.66,11.53,1.98c3.44,1.32,6.4,3.26,8.89,5.82l-4.39,6.7c-2.27-2.34-4.76-4.08-7.47-5.22-2.71-1.13-5.75-1.7-9.11-1.7-1.98,0-3.92,.24-5.82,.71-1.9,.47-3.48,1.31-4.72,2.5-1.25,1.2-1.87,2.89-1.87,5.06,0,1.82,.49,3.25,1.48,4.3,.99,1.05,2.45,1.94,4.39,2.67,1.94,.73,4.3,1.53,7.08,2.39,4.32,1.23,8.07,2.47,11.25,3.7,3.18,1.23,5.66,2.83,7.41,4.79,1.76,1.96,2.63,4.68,2.63,8.16,0,5.37-2.05,9.56-6.15,12.58-4.1,3.01-9.52,4.52-16.25,4.52Z"/><path d="M222,103.34c-.81,.37-1.9,.84-3.29,1.43-1.39,.59-3,1.1-4.83,1.54-1.83,.44-3.77,.66-5.82,.66-2.34,0-4.5-.42-6.48-1.26s-3.55-2.16-4.72-3.95c-1.17-1.79-1.76-4.04-1.76-6.75V56.45h-7.79v-7.58h7.79V29.78h9.66v19.1h12.85v7.58h-12.85v35.57c.15,2.05,.84,3.57,2.09,4.56,1.24,.99,2.71,1.48,4.39,1.48,1.9,0,3.66-.33,5.27-.99,1.61-.66,2.67-1.13,3.18-1.43l2.3,7.69Z"/></g><g><path d="M0,233.04v-7.49H4.28v-61.2H0v-7.69H59.64l2.83,24.5h-8.36v-2.98c0-3.76-.66-7.12-1.97-9.97-1.19-2.72-2.81-3.87-5.44-3.87H23.89v25.63c2.36,0,4.37-.02,6.04-.05,2.17-.03,3.84-.08,4.97-.15,1.74-.11,3.29-.51,4.61-1.2l.1-.05c.83-.68,1.48-1.54,1.98-2.63,.59-1.28,.9-3.32,.9-5.89v-2.98h7.38v33.57h-7.38v-2.98c0-2.32-.28-4.17-.81-5.36-.48-1.08-1.09-1.96-1.81-2.6-.89-.49-2.27-.9-4-1.18-2.14-.35-4.36-.56-6.58-.62-.69,0-1.51,.02-2.35,.05-.91,.04-1.79,.05-2.61,.05h-.44v27.57h7.34v7.49H0Z"/><path d="M108.72,232.84c-6.22,0-12.32-1.48-18.15-4.39-2.77-1.38-5.43-3.15-7.88-5.24-2.44-2.07-4.64-4.42-6.53-6.97-2.73-3.36-4.91-7.43-6.44-12.04-1.52-4.57-2.3-9.37-2.3-14.29s.89-10,2.64-14.57c1.82-4.73,4.77-8.74,8.78-11.92,2.81-2.37,5.9-4.11,9.15-5.14,3.17-1.01,6.47-1.52,9.82-1.52,3.08,0,6.19,.39,9.24,1.16,3,.76,5.96,1.84,8.78,3.22,2.81,1.37,5.5,3.04,8,4.95,2.52,1.93,4.79,4.13,6.76,6.54,3.01,3.97,5.33,8.31,6.93,12.94,1.59,4.65,2.4,9.57,2.4,14.62s-.89,9.64-2.66,14.05c-1.8,4.5-4.75,8.55-8.76,12.04-2.87,2.33-6.04,4.01-9.46,5.04-3.32,1-6.8,1.5-10.33,1.5Zm-19.46-65.73c-1.91,0-3.87,.76-5.85,2.25-1.43,1.23-2.56,2.67-3.21,4.11-.67,1.47-1.01,3.1-1.01,4.83,0,2.05,.39,4.25,1.17,6.54,.83,2.46,1.87,4.91,3.09,7.29,1.22,2.39,2.58,4.68,4.04,6.81,1.47,2.16,2.87,4.03,4.16,5.58,1.45,1.92,3.15,3.96,5.11,6.12,1.93,2.12,4.05,4.13,6.3,5.96,2.2,1.79,4.53,3.3,6.92,4.48,2.19,1.08,4.37,1.63,6.48,1.63,1.19,0,2.37-.22,3.51-.67,1.24-.48,2.52-1.2,3.81-2.13,2.58-2.17,3.87-4.94,3.87-8.39,0-2.54-.59-5.1-1.76-7.61-1.27-3.12-2.81-6.08-4.63-8.85-1.87-2.86-3.72-5.44-5.5-7.68l-.06-.07-.12-.17-1.22-2.07-2.13-2.32c-1.73-1.86-3.71-3.91-5.88-6.08-2.06-2.06-4.36-3.94-6.83-5.59-1.78-1.27-3.55-2.26-5.3-2.99-1.59-.66-3.27-1-4.97-1Z"/><path d="M181.46,234.57c-4.63,0-8.93-.47-12.78-1.41-4.05-.98-7.59-2.69-10.5-5.07-2.95-2.4-5.3-5.65-6.98-9.66-1.63-3.89-2.53-8.76-2.68-14.48v-39.49h-4.69v-7.79h30.31v7.79h-4.79v39.11c0,3.08,.24,6.08,.72,8.93,.45,2.68,1.25,5.07,2.37,7.11,1.04,1.89,2.49,3.42,4.32,4.57,1.78,1.12,4.22,1.69,7.23,1.69,3.57,0,6.57-.71,8.91-2.12,2.36-1.42,4.25-3.37,5.62-5.79,1.45-2.57,2.49-5.61,3.07-9.03,.61-3.56,.85-7.32,.72-11.17l.28-33.3h-4.36v-7.79h16.96v7.79h-4.99v15.67c0,3.05,.02,6.04,.05,8.98,.03,2.97,.05,5.98,.05,9.05,0,1.95-.05,4.17-.16,6.6-.11,2.56-.45,5.2-1.03,7.85-.59,2.69-1.48,5.33-2.65,7.85-1.24,2.67-2.96,5.08-5.12,7.16-2.19,2.11-4.96,3.81-8.24,5.07-3.25,1.25-7.18,1.88-11.66,1.88Z"/><path d="M297.72,233.04v-7.48h5.09v-61.1h-5.09v-6.18l1.44,.06c1.32,.06,2.64,.09,3.96,.09,5.9,0,11.75-.58,17.38-1.73l.14-.03h6.77c5.97,0,11.55,.59,16.57,1.76,5.22,1.21,9.81,3.33,13.64,6.31,3.88,3.01,6.95,7.08,9.11,12.07,2.12,4.91,3.2,11.07,3.2,18.3s-1.06,13.06-3.15,17.89c-2.13,4.93-5.16,8.94-9.01,11.93-3.78,2.93-8.31,5.05-13.45,6.3-4.95,1.21-10.44,1.82-16.29,1.82h-30.29Zm31.45-7.48c3.59-.93,6.69-2.21,9.22-3.82,2.51-1.6,4.59-3.65,6.18-6.09,1.63-2.51,2.85-5.52,3.62-8.96,.8-3.58,1.2-7.78,1.2-12.5,0-3.79-.48-7.51-1.43-11.05-.93-3.47-2.31-6.59-4.08-9.26-1.75-2.62-3.9-4.82-6.39-6.53-2.35-1.62-5.11-2.62-8.21-2.99-.34,0-.76,.02-1.26,.05-.71,.04-1.33,.05-1.84,.05h-3.75v61.1h6.74Z"/><path d="M276.08,233.04l-40.42-56.99v49.5h4.89v7.48h-17.37v-7.48h4.58v-61.2h-4.58v-7.69h23.17l31.55,44.9v-37.11h-4.58v-7.79h10.77l.13,.03c1.83,.37,3.71,.68,5.58,.93l1.19,.16v6.67h-4.79v68.58h-10.12Z"/></g><path d="M360.07,36.66c-2.74-.74-4.4-.26-4.99,2.93-2.27,12.23-10.06,19.13-21.92,21.56-5.12,1.05-10.44,1.12-15.59,2.07-5.43,1-10.15,3.09-13.15,7.25l-5.82-.25c.07-1.09,.09-2.17,.01-3.25-.35-5.13-4.37-8.54-7.59-12.25-3.04-3.5-6.33-6.97-8.51-11-4.69-8.67-1.98-19.26,5.51-23.92,6.39-3.98,15.26-2.78,19.43,2.61,4.58,5.93,3.73,12.49-2.62,18.24-2.27,2.06-1.85,3.73-.05,5.61,3.86,4.04,11.35,4.68,17.69,1.53,11.19-5.57,14.74-20.18,7.67-31.75-5.06-8.28-12.66-13.01-21.99-14.8-14.7-2.83-28.71-1.1-40.89,8.31-16.95,13.11-16.81,40.88,5.77,50.84,.23,.1,.4,.32,.89,.72-1.51,.28-2.65,.47-3.78,.69-12.7,2.54-22.87,8.78-28.78,20.63-5.62,11.28-5.28,24.64-.08,36.14H0v25.4H269.05c21.31,8.95,48.34,7.79,67.42-4.22,13.44-8.46,22.3-20.12,24.03-36.29,1.35-12.56-1.88-23.78-11.23-33.11,1.6-.32,2.86-.52,4.1-.83,7.64-1.88,13.22-6.3,16.22-13.62,3.46-8.44-.82-16.89-9.52-19.24Zm-27.29,72.65c-6.35,13.4-17.76,21.31-30.72,27.29-1.51,.69-4.11,.36-5.61-.5-6.64-3.83-13.41-7.6-19.49-12.23-6.61-5.02-11.32-11.77-13.23-20.08-2.13-9.27-.41-17.55,7.43-23.54,7.23-5.53,14.75-4.85,22.03,.28,.43,.3,.84,.5,1.23,.61-.04,0-.06,0-.06,0,.03,0,.07,.01,.1,.02,.19,.05,.37,.08,.55,.09,5.59,.9,10.03-1.68,10.03-1.68,.02,0,.03-.02,.04-.03,.25-.1,.49-.2,.72-.32,7.71-4.23,17.35-3.01,23.68,3.09,6.63,6.4,8.05,17.01,3.31,27Z"/></g></g></g></g></svg>