<?xml version="1.0" encoding="UTF-8"?><svg xmlns="http://www.w3.org/2000/svg" viewBox="0 0 77.18 48.83"><defs><style>.d{fill:#fff;}.e{fill:#ed1c24;}</style></defs><g id="a"/><g id="b"><g id="c"><g><rect class="e" x="53.87" y="15.14" width="17.72" height="13.71" rx="6.86" ry="6.86"/><g><g><path class="d" d="M0,22.04V5.81H2.06v14.4H11.11v1.83H0Z"/><path class="d" d="M18.86,22.26c-.9,0-1.71-.16-2.45-.49-.73-.32-1.36-.77-1.9-1.34-.53-.57-.94-1.22-1.23-1.96-.29-.74-.43-1.52-.43-2.34s.14-1.62,.43-2.36c.29-.74,.7-1.4,1.23-1.96,.53-.57,1.17-1.01,1.91-1.34,.74-.32,1.56-.49,2.46-.49s1.69,.16,2.42,.49c.73,.33,1.37,.77,1.91,1.34,.54,.57,.96,1.22,1.25,1.96,.29,.74,.43,1.53,.43,2.36s-.15,1.6-.43,2.34c-.29,.74-.7,1.4-1.23,1.96-.53,.57-1.17,1.01-1.91,1.34-.74,.32-1.56,.49-2.46,.49Zm-3.95-6.1c0,.81,.18,1.55,.54,2.22,.36,.66,.83,1.19,1.43,1.57,.59,.38,1.26,.58,1.99,.58s1.4-.2,2-.59c.6-.39,1.08-.92,1.44-1.59,.36-.67,.54-1.41,.54-2.23s-.18-1.55-.54-2.22c-.36-.66-.84-1.19-1.44-1.58-.6-.39-1.27-.59-2-.59s-1.39,.2-1.99,.6-1.07,.93-1.43,1.59c-.36,.66-.54,1.41-.54,2.24Z"/><path class="d" d="M32.2,22.26c-.99,0-1.92-.16-2.79-.49-.87-.33-1.62-.82-2.24-1.47l.78-1.42c.69,.64,1.37,1.1,2.06,1.37,.69,.27,1.39,.41,2.1,.41,.82,0,1.49-.15,2.01-.46,.52-.31,.78-.76,.78-1.36,0-.44-.13-.76-.4-.98-.27-.21-.64-.39-1.13-.53-.49-.14-1.07-.31-1.74-.49-.82-.24-1.52-.5-2.08-.77-.56-.27-.99-.61-1.28-1.02-.29-.41-.43-.92-.43-1.54,0-.76,.2-1.39,.59-1.92,.4-.52,.94-.92,1.63-1.19,.69-.27,1.48-.41,2.37-.41s1.68,.14,2.4,.41c.72,.27,1.33,.68,1.85,1.21l-.91,1.39c-.47-.49-.99-.85-1.55-1.09-.56-.24-1.2-.35-1.9-.35-.41,0-.82,.05-1.21,.15-.4,.1-.72,.27-.98,.52-.26,.25-.39,.6-.39,1.05,0,.38,.1,.68,.31,.89,.21,.22,.51,.4,.91,.56,.4,.15,.89,.32,1.47,.5,.9,.26,1.68,.51,2.34,.77,.66,.26,1.18,.59,1.54,1,.37,.41,.55,.97,.55,1.7,0,1.12-.43,1.99-1.28,2.62-.85,.63-1.98,.94-3.38,.94Z"/><path class="d" d="M46.21,21.51c-.17,.08-.4,.18-.69,.3-.29,.12-.62,.23-1.01,.32-.38,.09-.79,.14-1.21,.14-.49,0-.94-.09-1.35-.26s-.74-.45-.98-.82c-.24-.37-.37-.84-.37-1.41V11.75h-1.62v-1.58h1.62v-3.98h2.01v3.98h2.67v1.58h-2.67v7.4c.03,.43,.18,.74,.43,.95,.26,.21,.56,.31,.91,.31,.4,0,.76-.07,1.1-.21,.34-.14,.56-.24,.66-.3l.48,1.6Z"/></g><g><path class="d" d="M0,48.51v-1.56H.89v-12.74H0v-1.6H12.42l.59,5.1h-1.74v-.62c0-.78-.14-1.48-.41-2.08-.25-.57-.59-.8-1.13-.8H4.97v5.34c.49,0,.91,0,1.26-.01,.45,0,.8-.02,1.03-.03,.36-.02,.68-.11,.96-.25h.02c.17-.15,.31-.33,.41-.56,.12-.27,.19-.69,.19-1.23v-.62h1.54v6.99h-1.54v-.62c0-.48-.06-.87-.17-1.12-.1-.23-.23-.41-.38-.54-.18-.1-.47-.19-.83-.25-.45-.07-.91-.12-1.37-.13-.14,0-.31,0-.49,0-.19,0-.37,.01-.54,.01h-.09v5.74h1.53v1.56H0Z"/><path class="d" d="M22.63,48.47c-1.29,0-2.57-.31-3.78-.91-.58-.29-1.13-.66-1.64-1.09-.51-.43-.96-.92-1.36-1.45-.57-.7-1.02-1.55-1.34-2.51-.32-.95-.48-1.95-.48-2.97s.19-2.08,.55-3.03c.38-.99,.99-1.82,1.83-2.48,.59-.49,1.23-.85,1.91-1.07,.66-.21,1.35-.32,2.04-.32,.64,0,1.29,.08,1.92,.24,.63,.16,1.24,.38,1.83,.67,.59,.29,1.15,.63,1.67,1.03,.52,.4,1,.86,1.41,1.36,.63,.83,1.11,1.73,1.44,2.69,.33,.97,.5,1.99,.5,3.04s-.19,2.01-.55,2.92c-.37,.94-.99,1.78-1.82,2.51-.6,.48-1.26,.84-1.97,1.05-.69,.21-1.42,.31-2.15,.31Zm-4.05-13.68c-.4,0-.81,.16-1.22,.47-.3,.26-.53,.56-.67,.85-.14,.31-.21,.64-.21,1.01,0,.43,.08,.88,.24,1.36,.17,.51,.39,1.02,.64,1.52,.25,.5,.54,.97,.84,1.42,.31,.45,.6,.84,.86,1.16,.3,.4,.66,.82,1.06,1.27,.4,.44,.84,.86,1.31,1.24,.46,.37,.94,.69,1.44,.93,.46,.23,.91,.34,1.35,.34,.25,0,.49-.05,.73-.14,.26-.1,.53-.25,.79-.44,.54-.45,.81-1.03,.81-1.75,0-.53-.12-1.06-.37-1.58-.26-.65-.59-1.26-.96-1.84-.39-.59-.77-1.13-1.14-1.6v-.02l-.04-.04-.25-.43-.44-.48c-.36-.39-.77-.81-1.22-1.26-.43-.43-.91-.82-1.42-1.16-.37-.26-.74-.47-1.1-.62-.33-.14-.68-.21-1.04-.21Z"/><path class="d" d="M37.77,48.83c-.96,0-1.86-.1-2.66-.29-.84-.2-1.58-.56-2.19-1.06-.61-.5-1.1-1.18-1.45-2.01-.34-.81-.53-1.82-.56-3.01v-8.22h-.98v-1.62h6.31v1.62h-1v8.14c0,.64,.05,1.27,.15,1.86,.09,.56,.26,1.06,.49,1.48,.22,.39,.52,.71,.9,.95,.37,.23,.88,.35,1.51,.35,.74,0,1.37-.15,1.85-.44,.49-.3,.88-.7,1.17-1.21,.3-.54,.52-1.17,.64-1.88,.13-.74,.18-1.52,.15-2.33l.06-6.93h-.91v-1.62h3.53v1.62h-1.04v3.26c0,.63,0,1.26,.01,1.87,0,.62,.01,1.25,.01,1.88,0,.41-.01,.87-.03,1.37-.02,.53-.09,1.08-.22,1.63-.12,.56-.31,1.11-.55,1.63-.26,.56-.62,1.06-1.07,1.49-.46,.44-1.03,.79-1.71,1.06-.68,.26-1.49,.39-2.43,.39Z"/><path class="d" d="M61.97,48.51v-1.56h1.06v-12.72h-1.06v-1.29h.3c.27,.03,.55,.03,.82,.03,1.23,0,2.45-.12,3.62-.36h1.44c1.24,0,2.4,.12,3.45,.36,1.09,.25,2.04,.69,2.84,1.31,.81,.63,1.45,1.47,1.9,2.51,.44,1.02,.67,2.3,.67,3.81s-.22,2.72-.66,3.72c-.44,1.03-1.07,1.86-1.88,2.48-.79,.61-1.73,1.05-2.8,1.31-1.03,.25-2.17,.38-3.39,.38h-6.3Zm6.55-1.56c.75-.19,1.39-.46,1.92-.79,.52-.33,.96-.76,1.29-1.27,.34-.52,.59-1.15,.75-1.87,.17-.74,.25-1.62,.25-2.6,0-.79-.1-1.56-.3-2.3-.19-.72-.48-1.37-.85-1.93-.36-.55-.81-1-1.33-1.36-.49-.34-1.06-.55-1.71-.62-.07,0-.16,0-.26,0-.15,0-.28,.01-.38,.01h-.78v12.72h1.4Z"/><path class="d" d="M57.47,48.51l-8.41-11.86v10.3h1.02v1.56h-3.62v-1.56h.95v-12.74h-.95v-1.6h4.82l6.57,9.35v-7.73h-.95v-1.62h2.27c.38,.08,.77,.15,1.16,.2l.25,.03v1.39h-1v14.28h-2.11Z"/></g><path class="d" d="M74.95,7.63c-.57-.15-.92-.05-1.04,.61-.47,2.55-2.09,3.98-4.56,4.49-1.07,.22-2.17,.23-3.24,.43-1.13,.21-2.11,.64-2.74,1.51l-1.21-.05c.01-.23,.02-.45,0-.68-.07-1.07-.91-1.78-1.58-2.55-.63-.73-1.32-1.45-1.77-2.29-.98-1.8-.41-4.01,1.15-4.98,1.33-.83,3.18-.58,4.04,.54,.95,1.23,.78,2.6-.55,3.8-.47,.43-.39,.78-.01,1.17,.8,.84,2.36,.97,3.68,.32,2.33-1.16,3.07-4.2,1.6-6.61-1.05-1.72-2.64-2.71-4.58-3.08-3.06-.59-5.98-.23-8.51,1.73-3.53,2.73-3.5,8.51,1.2,10.58,.05,.02,.08,.07,.19,.15-.31,.06-.55,.1-.79,.14-2.64,.53-4.76,1.83-5.99,4.29-1.17,2.35-1.1,5.13-.02,7.52H0v5.29H56c4.44,1.86,10.06,1.62,14.03-.88,2.8-1.76,4.64-4.19,5-7.55,.28-2.61-.39-4.95-2.34-6.89,.33-.07,.6-.11,.85-.17,1.59-.39,2.75-1.31,3.38-2.84,.72-1.76-.17-3.52-1.98-4.01Zm-5.68,15.12c-1.32,2.79-3.7,4.44-6.4,5.68-.31,.14-.85,.08-1.17-.11-1.38-.8-2.79-1.58-4.06-2.54-1.38-1.05-2.36-2.45-2.75-4.18-.44-1.93-.09-3.65,1.55-4.9,1.51-1.15,3.07-1.01,4.59,.06,.09,.06,.18,.1,.26,.13h0s.08,.02,.11,.02c1.16,.19,2.09-.35,2.09-.35h0c.05-.03,.1-.05,.15-.07,1.6-.88,3.61-.63,4.93,.64,1.38,1.33,1.68,3.54,.69,5.62Z"/></g></g></g></g></svg>