<?xml version="1.0" encoding="UTF-8"?><svg xmlns="http://www.w3.org/2000/svg" viewBox="0 0 228.08 155.5"><g id="a"/><g id="b"><g id="c"><g><path d="M213.1,48.98c6.51,6.5,8.75,14.31,7.82,23.05-1.21,11.26-7.37,19.37-16.73,25.26-16.48,10.37-41.46,9.12-56.81-2.76-11.45-8.86-15.55-24.79-9.39-37.15,4.11-8.25,11.19-12.59,20.03-14.36,.79-.16,1.58-.29,2.63-.48-.34-.28-.46-.43-.62-.5-15.72-6.93-15.82-26.27-4.02-35.39C164.48,.09,174.24-1.11,184.47,.86c6.49,1.25,11.78,4.54,15.31,10.3,4.92,8.05,2.45,18.22-5.34,22.1-4.41,2.2-9.63,1.75-12.32-1.06-1.25-1.31-1.55-2.47,.04-3.91,4.42-4.01,5.01-8.58,1.82-12.7-2.9-3.76-9.08-4.59-13.53-1.82-5.22,3.25-7.11,10.62-3.84,16.65,1.52,2.8,3.81,5.22,5.93,7.66,2.24,2.58,5.04,4.96,5.28,8.53,.19,2.81-.45,5.72-.99,8.53-.28,1.47-1.44,1.87-2.79,.92-5.07-3.58-10.3-4.04-15.34-.2-5.46,4.17-6.66,9.94-5.17,16.39,1.33,5.79,4.61,10.48,9.21,13.98,4.24,3.22,8.95,5.84,13.57,8.51,1.05,.61,2.86,.84,3.91,.35,9.03-4.16,16.97-9.67,21.39-19,3.3-6.96,2.31-14.34-2.31-18.8-4.4-4.25-11.12-5.1-16.48-2.15-.85,.46-1.86,.61-2.8,.91,.02-1.09-.2-2.25,.09-3.27,1.53-5.49,5.77-7.83,10.92-8.78,3.58-.66,7.29-.71,10.85-1.44,8.26-1.69,13.68-6.49,15.26-15.01,.41-2.22,1.57-2.55,3.47-2.04,6.06,1.64,9.04,7.52,6.63,13.4-2.09,5.1-5.97,8.18-11.29,9.49-.86,.21-1.74,.35-2.85,.58Z"/><polygon points="179.45 101.83 0 101.83 0 83.92 149.46 83.92 179.45 101.83"/><path d="M.08,154.55v-2.96H2.75v-39.96H.08v-3.08H35.72l1.57,13.59h-3.4v-1c0-2.47-.44-4.69-1.31-6.59-.87-2-2.2-2.92-4.18-2.92H13.28v17.74c1.85,0,3.4-.01,4.65-.03,1.37-.02,2.42-.05,3.14-.09,1.21-.08,2.29-.36,3.23-.84l.14-.07c.66-.52,1.17-1.18,1.55-2.01,.42-.92,.64-2.28,.64-4.04v-1h2.89v19.26h-2.89v-1c0-1.59-.2-2.84-.58-3.7-.37-.82-.84-1.49-1.42-1.98-.65-.38-1.61-.68-2.86-.88-1.37-.22-2.79-.36-4.23-.4-.47,0-.99,.01-1.53,.03-.56,.02-1.1,.03-1.6,.03h-1.13v18.95h4.58v2.96H.08Z"/><path d="M62.85,154.42c-3.75,0-7.44-.89-10.95-2.65-1.67-.84-3.27-1.9-4.75-3.16-1.48-1.25-2.8-2.67-3.94-4.21-1.65-2.04-2.98-4.5-3.9-7.28s-1.39-5.68-1.39-8.66,.54-6.04,1.59-8.8c1.08-2.81,2.84-5.19,5.22-7.08,1.68-1.42,3.52-2.46,5.44-3.07,1.89-.6,3.87-.91,5.88-.91,1.86,0,3.73,.24,5.56,.7,1.82,.46,3.61,1.12,5.32,1.95,1.71,.83,3.34,1.84,4.85,3,1.52,1.17,2.89,2.5,4.08,3.95,1.82,2.39,3.22,5.01,4.18,7.82,.97,2.81,1.46,5.79,1.46,8.86s-.54,5.8-1.6,8.46c-1.07,2.68-2.84,5.1-5.24,7.2-1.69,1.37-3.56,2.37-5.59,2.97-2,.6-4.08,.9-6.21,.9Zm-12.16-41.07c-1.38,0-2.79,.53-4.17,1.58-1.03,.88-1.81,1.87-2.27,2.9-.47,1.03-.71,2.17-.71,3.38,0,1.37,.26,2.84,.78,4.36,.53,1.58,1.2,3.15,1.98,4.67,.78,1.53,1.65,2.99,2.58,4.35,.94,1.37,1.83,2.57,2.65,3.55,.9,1.2,1.97,2.48,3.22,3.85,1.23,1.36,2.59,2.64,4.03,3.81,1.42,1.16,2.93,2.14,4.49,2.9,1.49,.74,2.98,1.11,4.43,1.11,.85,0,1.69-.16,2.5-.47,.85-.33,1.71-.81,2.57-1.44,1.85-1.55,2.77-3.51,2.77-5.94,0-1.71-.4-3.43-1.18-5.12-.8-1.98-1.79-3.86-2.95-5.64-1.19-1.81-2.36-3.45-3.48-4.86l-.04-.05-.81-1.37-1.39-1.51c-1.1-1.18-2.34-2.47-3.7-3.82-1.33-1.33-2.81-2.54-4.4-3.6-1.15-.82-2.3-1.47-3.46-1.95-1.1-.46-2.26-.69-3.44-.69Z"/><path d="M107.8,155.5c-2.83,0-5.44-.29-7.78-.86-2.41-.58-4.5-1.59-6.22-3-1.73-1.41-3.12-3.33-4.11-5.7-.98-2.33-1.52-5.27-1.61-8.74v-25.52h-2.93v-3.15h17.22v3.15h-2.99v25.3c0,1.97,.16,3.9,.46,5.72,.3,1.77,.83,3.36,1.58,4.71,.72,1.31,1.73,2.37,3,3.17,1.25,.79,2.93,1.19,4.98,1.19,2.39,0,4.41-.49,6.01-1.45,1.6-.97,2.89-2.29,3.82-3.93,.96-1.69,1.64-3.68,2.02-5.92,.39-2.28,.54-4.69,.46-7.15l.18-21.64h-2.73v-3.15h8.88v3.15h-3.12v10.65c0,1.91,0,3.78,.03,5.62,.02,1.85,.03,3.73,.03,5.65,0,1.19-.03,2.57-.1,4.09-.07,1.55-.28,3.16-.63,4.76-.36,1.62-.89,3.21-1.6,4.73-.73,1.57-1.74,2.99-3.01,4.22-1.28,1.24-2.92,2.24-4.86,2.98-1.93,.74-4.28,1.12-6.98,1.12Z"/><path d="M3.4,75.76c.98-.21,1.77-.68,2.36-1.43,.59-.75,.89-1.61,.89-2.59V27.92c0-.98-.3-1.84-.89-2.59-.59-.75-1.38-1.22-2.36-1.43l-2.32-.46v-.7H14.86v49c0,.98,.3,1.85,.89,2.59,.59,.75,1.38,1.23,2.36,1.43l2.32,.46v.7H1.08v-.7l2.32-.46Z"/><path d="M49.8,41.78c2.45,1.08,4.53,2.58,6.23,4.49,2.79,3.3,4.18,7.38,4.18,12.23,0,6.61-2.22,11.82-6.66,15.64-1.6,1.24-3.39,2.21-5.38,2.9-1.99,.7-4.04,1.04-6.15,1.04-2.68,0-5.2-.54-7.55-1.63-2.35-1.08-4.35-2.6-6-4.57-2.89-3.3-4.33-7.33-4.33-12.08,0-6.86,2.27-12.1,6.81-15.71,1.55-1.24,3.26-2.21,5.15-2.9,1.88-.7,3.86-1.04,5.92-1.04,2.73,0,5.33,.54,7.78,1.63Zm-14.59,3.87c-1.39,2.48-2.09,5.99-2.09,10.53,0,.72,.05,1.96,.15,3.72,.26,3.04,.76,5.74,1.51,8.09,.75,2.35,1.69,4.19,2.83,5.53,1.75,2.22,3.64,3.33,5.65,3.33,2.37,0,4.36-1.44,5.96-4.33,1.34-2.42,2.01-5.91,2.01-10.45,0-.72-.05-1.96-.16-3.71-.26-2.99-.76-5.66-1.51-8.01-.75-2.35-1.66-4.24-2.75-5.69-1.81-2.17-3.72-3.25-5.73-3.25-2.37,0-4.33,1.42-5.88,4.26Z"/><path d="M65.98,64.11c1.06-1.37,2.52-2.05,4.37-2.05,2.06,0,3.47,.53,4.22,1.59,.75,1.06,1.1,2.18,1.04,3.37-1.03,.21-1.97,.71-2.83,1.51-.85,.8-1.28,1.69-1.28,2.67,0,1.34,.76,2.49,2.28,3.45,1.52,.96,3.52,1.43,6,1.43s4.84-.61,6.77-1.82c1.93-1.21,2.9-2.77,2.9-4.68,0-1.24-.46-2.37-1.39-3.41-.93-1.03-2.4-2.06-4.41-3.1-.72-.36-1.81-.85-3.25-1.47-1.03-.41-1.81-.75-2.32-1.01-4.75-1.91-8.08-4.05-9.99-6.42-1.24-1.39-1.86-3.1-1.86-5.11,0-1.13,.32-2.23,.97-3.29,.65-1.06,1.56-2.02,2.75-2.9,1.03-.77,2.48-1.42,4.33-1.94,1.86-.52,3.74-.77,5.65-.77,3.15,0,5.84,.41,8.09,1.24,2.24,.83,3.95,1.93,5.11,3.33s1.74,2.86,1.74,4.41c0,1.14-.44,2.19-1.32,3.17-.88,.98-2.04,1.47-3.48,1.47-.46,0-.83-.03-1.08-.08-1.03-.21-1.93-.76-2.71-1.67-.77-.9-1.11-1.74-1.01-2.52,.88-.05,1.65-.41,2.32-1.08,.67-.67,1.01-1.47,1.01-2.4,0-1.34-.74-2.4-2.21-3.17-1.47-.77-3.21-1.16-5.22-1.16-2.12,0-4,.57-5.65,1.7-1.65,1.14-2.48,2.5-2.48,4.1,0,1.14,.48,2.17,1.43,3.1,.95,.93,2.44,1.86,4.45,2.79,1.03,.52,2.97,1.34,5.81,2.48,4.8,1.91,8.18,4.15,10.14,6.73,1.24,1.45,1.86,3.25,1.86,5.42,0,1.24-.36,2.45-1.08,3.64-.72,1.19-1.75,2.27-3.1,3.25-1.24,.93-2.9,1.69-4.99,2.28-2.09,.59-4.22,.89-6.39,.89-2.53,0-5.08-.35-7.66-1.04s-4.75-1.77-6.5-3.21c-1.75-1.44-2.63-3.25-2.63-5.42,0-1.5,.53-2.93,1.59-4.3Z"/><path d="M124.93,41.31v2.32h-10.68v23.14c0,2.68,.57,4.85,1.7,6.5,1.13,1.65,2.61,2.48,4.41,2.48,2.06,0,3.64-.55,4.72-1.66,1.08-1.11,1.75-2.88,2.01-5.3h2.94c-.21,2.84-1.28,5.1-3.21,6.77-1.93,1.68-4.4,2.52-7.39,2.52-4.03,0-7.26-.97-9.71-2.9-2.45-1.94-3.68-4.45-3.68-7.55v-24h-7.9v-2.32c2.32,0,4.45-.58,6.39-1.74,1.94-1.16,3.48-2.77,4.64-4.84,1.16-2.06,1.74-4.36,1.74-6.89h3.33v13.47h10.68Z"/><path d="M212.18,113.41c-2.29-1.78-5.04-3.05-8.19-3.78-3.07-.71-6.49-1.08-10.16-1.08h-4.14c-4.41,.9-8.99,1.25-13.54,1.04v2.1h3.18v39.9h-3.18v2.96h18.07c3.59,0,6.95-.37,9.98-1.11,3.1-.75,5.82-2.02,8.08-3.78,2.29-1.77,4.1-4.17,5.37-7.11,1.26-2.91,1.9-6.56,1.9-10.84s-.65-8.14-1.93-11.09c-1.29-2.99-3.12-5.41-5.43-7.21Zm-4.52,25.72c-.5,2.25-1.3,4.23-2.38,5.88-1.06,1.63-2.45,3-4.12,4.06-1.68,1.07-3.74,1.91-6.11,2.52h-5.18v-39.9h3.2c.31,0,.68,0,1.1-.03,.35-.02,.64-.03,.88-.03,2.09,.24,3.97,.92,5.57,2.02,1.65,1.13,3.07,2.58,4.22,4.31,1.17,1.75,2.06,3.78,2.67,6.04,.61,2.28,.92,4.68,.92,7.13,0,3.01-.26,5.7-.77,8Z"/><path d="M167.54,108.55h-5.78v3.15h2.87v26.77l-21.02-29.92h-13.17v3.08h2.87v39.96h-2.87v2.96h9.13v-2.96h-3.06v-34.5l26.57,37.45h5.02v-42.86h2.99v-2.56c-1.19-.16-2.37-.36-3.54-.59Z"/></g></g></g></svg>