<?xml version="1.0" encoding="UTF-8"?><svg xmlns="http://www.w3.org/2000/svg" viewBox="0 0 62.7 62.7"><defs><style>.d{fill:#fff;}.e{fill:#ed1c24;}</style></defs><g id="a"/><g id="b"><g id="c"><g><circle cx="31.35" cy="31.35" r="31.35"/><rect class="e" x="20.73" y="31.35" width="21.08" height="15.29" rx="2.32" ry="2.32"/><path class="d" d="M43.58,29.94c2.3,2.3,3.1,5.06,2.77,8.15-.43,3.98-2.61,6.85-5.92,8.94-5.83,3.67-14.67,3.23-20.1-.97-4.05-3.13-5.5-8.77-3.32-13.14,1.45-2.92,3.96-4.45,7.09-5.08,.28-.06,.56-.1,.93-.17-.12-.1-.16-.15-.22-.18-5.56-2.45-5.6-9.29-1.42-12.52,3-2.32,6.45-2.74,10.07-2.05,2.3,.44,4.17,1.61,5.41,3.64,1.74,2.85,.87,6.45-1.89,7.82-1.56,.78-3.41,.62-4.36-.38-.44-.46-.55-.87,.01-1.38,1.56-1.42,1.77-3.03,.65-4.49-1.03-1.33-3.21-1.62-4.78-.64-1.85,1.15-2.51,3.76-1.36,5.89,.54,.99,1.35,1.85,2.1,2.71,.79,.91,1.78,1.75,1.87,3.02,.07,.99-.16,2.02-.35,3.02-.1,.52-.51,.66-.99,.32-1.79-1.26-3.64-1.43-5.43-.07-1.93,1.48-2.36,3.52-1.83,5.8,.47,2.05,1.63,3.71,3.26,4.94,1.5,1.14,3.16,2.07,4.8,3.01,.37,.21,1.01,.3,1.38,.12,3.19-1.47,6-3.42,7.57-6.72,1.17-2.46,.82-5.07-.82-6.65-1.56-1.5-3.93-1.8-5.83-.76-.3,.16-.66,.22-.99,.32,0-.39-.07-.8,.03-1.16,.54-1.94,2.04-2.77,3.86-3.11,1.27-.23,2.58-.25,3.84-.51,2.92-.6,4.84-2.3,5.4-5.31,.15-.78,.55-.9,1.23-.72,2.14,.58,3.2,2.66,2.34,4.74-.74,1.8-2.11,2.89-4,3.36-.3,.07-.61,.13-1.01,.2Z"/><path d="M31.03,30.6h1.13s-.42,.65-.28,1.84c0,0-.51,.55-1.68,.18,0,0,.55,.16,.83-2.02Z"/></g></g></g></svg>